<?xml version="1.0" standalone="no"?>
<!DOCTYPE svg PUBLIC "-//W3C//DTD SVG 20010904//EN"
 "http://www.w3.org/TR/2001/REC-SVG-20010904/DTD/svg10.dtd">
<svg version="1.0" xmlns="http://www.w3.org/2000/svg"
 width="400.000000pt" height="400.000000pt" viewBox="0 0 400.000000 400.000000"
 preserveAspectRatio="xMidYMid meet">
<metadata>
Created by potrace 1.11, written by Peter Selinger 2001-2013
</metadata>
<g transform="translate(0.000000,400.000000) scale(0.100000,-0.100000)"
fill="#000000" stroke="none">
<path d="M1593 3271 c-10 -11 -50 -75 -89 -143 -39 -68 -205 -357 -370 -643
-165 -286 -325 -563 -354 -615 -29 -52 -91 -158 -137 -235 -67 -111 -83 -145
-78 -165 11 -44 21 -131 16 -134 -3 -2 -71 -23 -149 -46 -79 -24 -146 -49
-149 -57 -3 -7 4 -39 15 -71 l20 -59 -34 -12 c-30 -11 -34 -16 -34 -50 0 -77
28 -86 168 -56 93 19 92 19 92 -7 0 -50 8 -52 152 -44 73 4 174 10 223 13 50
3 99 4 110 2 27 -3 252 -3 340 1 65 2 101 -7 500 -129 236 -73 438 -131 450
-129 13 2 32 25 56 72 20 38 50 79 65 90 16 11 31 23 34 27 10 11 169 68 207
73 104 13 194 18 363 21 394 7 586 64 670 200 30 49 42 123 24 157 -27 53
-129 114 -233 141 l-52 13 103 38 c128 47 148 59 141 86 -4 16 -14 20 -44 20
-33 0 -171 -18 -274 -35 -16 -3 11 10 61 28 155 58 204 83 204 106 0 16 -6 21
-27 21 -25 0 -170 -20 -258 -35 -21 -4 -14 2 25 20 196 91 208 98 203 111 -7
19 -53 18 -203 -5 -68 -11 -126 -19 -127 -17 -1 1 30 13 70 25 124 40 127 42
127 110 0 54 -23 243 -37 300 -15 66 -36 66 -239 1 -87 -28 -159 -48 -161 -46
-2 1 24 68 57 147 61 144 100 245 100 260 0 5 -15 12 -32 17 -39 10 -54 44
-70 169 -10 73 -10 86 7 123 10 22 27 50 37 62 19 22 24 63 10 72 -12 7 -133
27 -632 101 -239 36 -502 76 -585 89 -248 40 -260 40 -282 17z m-839 -1830 c6
-10 -52 -24 -65 -15 -5 3 -9 9 -9 15 0 11 67 12 74 0z m1146 -261 c0 -5 -2
-10 -4 -10 -3 0 -8 5 -11 10 -3 6 -1 10 4 10 6 0 11 -4 11 -10z m160 -37 c47
-13 90 -29 95 -35 7 -7 3 -8 -13 -3 -13 4 -34 9 -45 10 -12 2 -38 8 -57 14
-19 6 -56 16 -82 22 -27 7 -48 16 -48 21 0 11 34 5 150 -29z m16 -123 c8 0 14
-4 14 -9 0 -5 -10 -7 -22 -3 -14 3 -19 2 -14 -6 4 -7 1 -12 -10 -12 -13 0 -14
3 -5 14 7 8 8 16 4 18 -4 3 -2 3 5 1 8 -1 20 -3 28 -3z m125 -7 c13 -17 13
-17 -6 -3 -11 8 -22 16 -24 17 -2 2 0 3 6 3 6 0 17 -8 24 -17z m-47 -83 c5 -5
-8 -5 -29 0 -21 5 -42 13 -48 19 -13 13 63 -6 77 -19z m-119 10 c3 -6 -1 -7
-9 -4 -18 7 -21 14 -7 14 6 0 13 -4 16 -10z m87 -20 c15 0 -11 -29 -36 -41
-17 -8 -17 -7 3 9 23 19 23 20 5 31 -17 12 -17 12 -1 7 10 -3 23 -6 29 -6z
m-77 -11 c11 -17 0 -20 -21 -4 -17 13 -17 14 -2 15 9 0 20 -5 23 -11z"/>
</g>
</svg>
